<svg xmlns="http://www.w3.org/2000/svg" viewBox="0 0 100 125" x="0px" y="0px"><defs><style>.cls-1{fill:none;}.cls-1,.cls-2{stroke:#000;}.cls-1,.cls-2,.cls-3{stroke-linecap:round;stroke-linejoin:round;stroke-width:2px;}.cls-3{fill:#fff;stroke:#231f20;}</style></defs><title>thenounproject-dogbreeds</title><g><polyline class="cls-1" points="49.83 13.07 40.27 13.07 30.98 16.87 22.37 28.81 22.82 31.98 23.58 37.28 28.45 42.05 37.16 43.79 43.47 43.79 48.19 43.79 49.83 43.79"/><polyline class="cls-1" points="22.82 32.95 17.65 36.05 13.32 40.72 8.55 50.52 10.19 60.93 12.87 72.16 15.69 82 22.37 88.39 27.05 88.39 34.36 88.39 37.94 83.69 40.18 79.93 38.84 76.82 37.94 73.54 36.9 67.84 36.1 61.96 34.36 55.4 32.42 52.28 30.78 46.42 30.24 42.52"/><polyline class="cls-1" points="49.83 83.69 47.53 84.7 44.18 84.2 41.64 82.47 40.18 79.93"/><polyline class="cls-1" points="50.07 71.77 48.14 71.77 45 73.3 45 76.24 45 79.06 46.54 80.59 49.83 80.59"/><polyline class="cls-1" points="50.07 13.07 59.63 13.07 68.92 16.87 77.53 28.81 77.08 31.98 76.32 37.28 71.44 42.05 62.74 43.79 56.43 43.79 51.71 43.79 50.07 43.79"/><polyline class="cls-1" points="77.08 32.95 82.25 36.05 86.58 40.72 91.35 50.52 89.71 60.93 87.03 72.16 84.21 82 77.53 88.39 72.85 88.39 65.54 88.39 61.96 83.69 59.72 79.93 61.06 76.82 61.96 73.54 63 67.84 63.8 61.96 65.54 55.4 67.48 52.28 69.12 46.42 69.66 42.52"/><polyline class="cls-1" points="50.07 83.69 52.37 84.7 55.72 84.2 58.26 82.47 59.72 79.93"/><polyline class="cls-1" points="50.07 80.59 53.36 80.59 54.9 79.06 54.9 76.24 54.9 73.3 51.76 71.77 49.83 71.77"/><ellipse class="cls-2" cx="41.63" cy="48.76" rx="1.62" ry="1.7"/><ellipse class="cls-2" cx="58.27" cy="48.76" rx="1.62" ry="1.7"/><polyline class="cls-1" points="47 47.06 47.78 50.47 45.88 53.13 43.05 56.46"/><polyline class="cls-1" points="53.06 47.06 52.27 50.47 54.17 53.13 57.01 56.46"/><polyline class="cls-3" points="47.78 76.18 48.31 77.1 45 79.06"/><polyline class="cls-3" points="52.11 76.18 51.59 77.1 54.9 79.06"/></g><text x="0" y="115" fill="#000000" font-size="5px" font-weight="bold" font-family="'Helvetica Neue', Helvetica, Arial-Unicode, Arial, Sans-serif">Created by Amelia Detwiler</text><text x="0" y="120" fill="#000000" font-size="5px" font-weight="bold" font-family="'Helvetica Neue', Helvetica, Arial-Unicode, Arial, Sans-serif">from the Noun Project</text></svg>